<?xml version="1.0" encoding="utf-8"?>
<!-- Generator: Adobe Illustrator 14.0.0, SVG Export Plug-In . SVG Version: 6.00 Build 43363)  -->
<!DOCTYPE svg PUBLIC "-//W3C//DTD SVG 1.1//EN" "http://www.w3.org/Graphics/SVG/1.1/DTD/svg11.dtd">
<svg version="1.1" id="Layer_2" xmlns="http://www.w3.org/2000/svg" xmlns:xlink="http://www.w3.org/1999/xlink" x="0px" y="0px"
	 width="557px" height="969px" viewBox="0 0 557 969" enable-background="new 0 0 557 969" xml:space="preserve">
<path d="M480.731,663.515c-3.59-2.099-7.028-4.456-10.306-7.015c-6.647-5.189-12.664-11.206-17.877-17.833
	c-5.066-6.441-9.495-13.536-12.461-21.198c-2.94-7.592-4.127-15.792-4.353-23.898c-0.442-15.835,2.698-32.156,9.689-46.415
	c0.831-0.914,1.119-2.184,0.81-3.354c-0.778-3.778-4.686-2.732-7.392-2.413c-4.598,0.543-9.24,0.708-13.867,0.555
	c-8.944-0.299-17.869-1.771-26.444-4.331c-7.828-2.333-15.524-5.577-22.303-10.177c-6.404-4.346-11.847-10.043-16.542-16.161
	c-6.289-8.193-11.341-17.382-14.94-27.061c-1.834-4.932-3.286-10.013-4.245-15.189c-0.331-1.78-0.421-3.656-2.18-4.629
	c-1.432-0.787-3.121-0.5-4.3,0.594v-0.001c-12.064,12.074-27.923,20.718-44.367,25.109c-7.667,2.046-15.611,3.139-23.545,2.466
	c-8.599-0.729-17.066-3.055-25.058-6.26c-7.871-3.157-15.391-7.243-22.267-12.212c-3.403-2.459-6.649-5.14-9.673-8.055
	c-0.906-0.874-1.726-1.862-3.049-2.063c-1.396-0.22-2.871,0.445-3.625,1.64c-0.715,1.124-0.722,2.657-0.965,3.923
	c-0.429,2.23-0.948,4.443-1.55,6.633c-1.167,4.25-2.638,8.415-4.365,12.468c-3.427,8.047-7.85,15.697-13.176,22.636
	c-4.521,5.891-9.734,11.39-15.832,15.669c-6.358,4.462-13.596,7.664-20.969,10.034c-8.162,2.625-16.664,4.236-25.217,4.801
	c-4.414,0.292-8.849,0.297-13.261-0.023c-2.215-0.161-4.425-0.405-6.62-0.739c-1.761-0.268-3.472,0.157-4.333,1.875
	c-1.334,1.329-1.246,3.078-0.451,4.645c0.977,1.926,1.875,3.892,2.7,5.888c1.605,3.882,2.935,7.876,4.014,11.935
	c2.125,7.995,3.308,16.256,3.502,24.526c0.195,8.329-0.538,16.831-2.961,24.832c-2.297,7.583-6.216,14.654-10.762,21.11
	c-8.632,12.258-20.047,22.891-33.212,30.128h-0.307c-1.925,0-3.467,1.529-3.595,3.389c-0.009,0.128-0.011,0.259-0.006,0.39
	c-0.033,0.217-0.047,0.425-0.044,0.625c0.049,3.045,4.103,4.195,6.313,5.484c3.593,2.094,7.034,4.448,10.314,7.004
	c6.652,5.183,12.675,11.194,17.895,17.816c5.072,6.435,9.508,13.525,12.482,21.186c2.958,7.617,4.152,15.85,4.381,23.987
	c0.438,15.616-2.612,31.691-9.392,45.806c-1.303,1.081-1.672,2.902-0.927,4.387c1.336,3.741,6.117,1.994,8.949,1.713
	c4.616-0.457,9.268-0.543,13.899-0.314c8.915,0.442,17.789,2.036,26.302,4.716c7.673,2.416,15.222,5.727,21.797,10.409
	c6.369,4.537,11.777,10.389,16.431,16.64c9.141,12.281,15.802,26.809,18.439,41.929c-0.188,1.516,0.611,2.99,1.991,3.671
	c1.177,0.654,2.646,0.642,3.777-0.109c0.073,0,0.528-0.424,0.567-0.464v-0.001c8.189-8.211,18.102-14.697,28.638-19.485
	c10.672-4.852,22.516-8.365,34.324-8.365h0.013h0.038c11.48-0.013,22.994,3.305,33.423,7.91
	c10.534,4.649,20.447,11.006,28.722,19.042c0.734,1.325,2.235,2.047,3.741,1.8c1.347-0.142,2.528-1.043,3.012-2.309
	c0-0.002,0-0.002,0-0.003c0.051-0.136,0.187-0.56,0.187-0.706l-0.001-0.002c2.709-17.148,10.667-33.754,21.707-47.095
	c4.846-5.855,10.417-11.127,16.936-15.081c7.177-4.355,15.14-7.404,23.244-9.517c7.32-1.908,14.853-3.046,22.412-3.339
	c3.867-0.151,7.745-0.078,11.601,0.248c2.012,0.171,4.018,0.411,6.013,0.728c1.462,0.231,2.947-0.485,3.688-1.766
	c1.38-1.552,0.902-3.272,0.076-4.931c-0.961-1.932-1.845-3.899-2.656-5.898c-1.576-3.884-2.879-7.879-3.935-11.935
	c-2.075-7.982-3.215-16.223-3.369-24.468c-0.155-8.347,0.62-16.874,3.126-24.869c2.378-7.588,6.354-14.653,10.956-21.104
	c8.701-12.191,20.162-22.757,33.364-29.897c1.927-0.062,3.502-1.681,3.502-3.61c0.015-0.151,0.02-0.302,0.019-0.453
	C487.028,665.891,482.993,664.837,480.731,663.515z M334.235,486.483c0,0,1.885-4.871,3.479-0.506
	c3.123,8.559,7.275,16.754,12.359,24.308c5.602,8.32,12.357,16.101,20.505,22.021c8.042,5.825,17.395,9.797,26.897,12.533
	c8.96,2.58,18.246,4.331,27.572,4.331c3.654,0,1.137,3.127,1.137,3.127l-27.594,20.063c-8.353,1.188-17.095-0.604-25.095-2.947
	c-7.714-2.258-16.046-5.193-22.602-9.963c-6.31-4.555-11.476-11.216-15.902-17.537c-4.833-6.901-9.362-14.679-11.045-23.03
	c-0.028-0.144-0.055-0.287-0.083-0.43L334.235,486.483z M392.347,750.419c0.493,3.301-1.83,1.552-1.83,1.552l-18.39-13.37
	c-2.42-4.839-2.828-11.013-3.023-16.32c-0.233-6.346,0.244-12.845,1.979-18.973c1.708-6.031,4.821-11.637,8.429-16.731
	c3.489-4.926,7.649-10.033,12.74-13.387h22.378c0,0,2.878,0.678,0.798,2.758c-4.169,4.171-7.91,8.78-11.279,13.608
	c-4.173,5.979-8.261,12.512-10.514,19.491c-2.169,6.77-2.685,14.192-2.822,21.258C390.68,737.025,391.075,743.806,392.347,750.419z
	 M150.543,748.887c2.431-9.271,1.444-19.277,0.25-28.735c-0.536-4.206-1.289-8.436-2.854-12.393
	c-1.698-4.289-3.986-8.354-6.431-12.257c-4.199-6.702-9.078-13.141-14.752-18.708c-2.472-2.471,1.615-3.605,1.615-3.605h20.342
	c0.001,0,0.001,0,0.002,0.001c4.703,2.339,8.618,7.123,11.814,11.162c3.997,5.052,7.497,10.662,9.732,16.724
	c2.153,5.839,2.938,12.158,3.023,18.355c0.083,6.084-0.254,12.768-2.444,18.515l-17.531,12.745
	C153.309,750.691,149.347,753.449,150.543,748.887z M149.89,590.254c0-3.323,3.747-1.566,3.747-1.566l16.146,11.74
	c2.132,5.085,2.865,10.578,3.109,16.065c0.287,6.486-0.168,13.143-1.93,19.413c-1.699,6.047-4.814,11.668-8.422,16.774
	c-3.454,4.887-7.549,9.89-12.547,13.274h-21.141c0,0-4.796-0.035-1.483-3.348c4.043-4.043,7.577-8.596,10.817-13.294
	c4.048-5.869,8.009-12.261,10.206-19.088c2.209-6.909,2.702-14.503,2.809-21.711C151.291,602.412,150.939,596.272,149.89,590.254z
	 M362.401,729.213c0.51,2.627-1.895,0.941-1.895,0.941l-10.529-7.658c-4.197-8.304-3.997-19.209-1.198-27.895
	c2.723-8.461,8.549-16.811,16.271-21.413h12.508c0,0,3.371,0.538,0.847,3.062c-6.426,6.424-11.014,14.858-13.789,23.453
	C361.613,709.057,361.134,719.442,362.401,729.213z M180.224,727.577c0.908-9.131,0.23-18.687-2.606-27.362
	c-2.789-8.467-7.754-16.412-13.708-23.158c-3.278-3.278,1.472-3.868,1.472-3.868h10.714c7.674,3.95,13.569,11.999,16.637,19.9
	c3.461,8.916,3.931,19.98,0.094,28.872l-9.966,7.246C182.86,729.207,179.817,731.658,180.224,727.577z M179.904,612.604
	c0-4.575,3.166-2.516,3.166-2.516l8.887,6.461c4.234,8.142,4.091,18.951,1.472,27.546c-2.631,8.629-8.473,17.122-16.261,21.859
	h-11.183c0,0-5.108-0.223-1.976-3.355c6.421-6.421,10.915-14.94,13.568-23.558C180.163,630.639,180.769,621.437,179.904,612.604z
	 M339.526,628.505c0,6.061,0.384,12.18,2.266,17.937c2.065,6.313,5.21,12.45,9.908,17.149c2.206,2.208-1.447,2.364-1.447,2.364
	h-12.225c-5.381-2.907-8.379-8.179-10.333-13.782c-2.123-6.086-3.378-12.76-0.636-18.864l9.336-6.788
	C336.396,626.521,339.526,624.786,339.526,628.505z M339.833,712.031c0.564,3.534-2.111,1.556-2.111,1.556l-10.261-7.461
	c-2.888-5.888-1.968-12.367-0.024-18.394c1.855-5.767,4.696-11.38,10.098-14.543h12.899c0,0,3.33,0.045,0.895,2.481
	C341.99,685.008,337.729,698.878,339.833,712.031z M318.378,699.522l-30.834-22.419c-1.035-1.775-1.486-2.89,1.226-3.915h37.977
	c-2.765,3.522-4.631,7.595-6.032,11.831C319.171,689.675,318.098,694.59,318.378,699.522z M223.785,695.957
	c0-3.473-1.099-6.872-2.18-10.17c-0.854-2.603-1.875-5.144-3.164-7.539c-2.788-4.757,3.12-5.059,3.12-5.059h33.121
	c1.718,0.513,2.158,1.881,0.877,3.163l-28.552,20.758C227.008,697.109,223.785,699.832,223.785,695.957z M202.554,711.131
	c0.905-6.134-0.323-12.463-2.253-18.354c-1.796-5.464-4.613-10.599-8.206-15.1c-3.516-3.515,0.533-4.488,0.533-4.488h11.295
	c5.449,2.888,8.491,8.192,10.467,13.841c2.113,6.038,3.38,12.661,0.711,18.737l-9.1,6.616
	C206.001,712.383,202.06,714.479,202.554,711.131z M191.656,662.445c7.84-9.752,11.657-22.246,10.567-34.729
	c0-3.533,3.959-0.824,3.959-0.824l8.329,6.057c2.959,5.916,2.053,12.446,0.103,18.523c-1.835,5.718-4.639,11.308-9.965,14.483
	h-11.058C193.591,665.955,188.729,665.373,191.656,662.445z M223.636,643.305c0-3.33,2.536-1.88,2.536-1.88l30.283,22.018l0,0
	c1.35,1.349,1.211,1.818-1.411,2.512h-33.726c0,0-5.786,0.422-3.478-3.718c1.426-2.556,2.576-5.265,3.498-8.061
	C222.499,650.664,223.39,647.006,223.636,643.305z M318.392,644.085c0,3.186,1.096,6.29,2.088,9.323
	c1.476,4.514,3.455,8.843,6.457,12.547h-39.613c-1.447-0.663-2.267-1.625-0.493-3.396l27.679-20.124
	C314.509,642.435,318.392,639.252,318.392,644.085z M283.569,619.215l-10.963,33.788c-1.318,1.318-1.718,1.303-3.204-0.182l0,0
	l-10.68-32.913c0,0-1.599-5.128,2.506-3.345c3.013,1.309,6.504,0.988,9.806,0.989c3.688-0.001,7.369-0.324,10.918-1.266
	C284.73,615.142,283.569,619.215,283.569,619.215z M269.489,686.052L269.489,686.052c1.305-1.303,1.287-1.472,3.247,0.487l0,0
	l12.066,37.191c-4.377-1.613-8.999-2.137-13.647-2.138h-0.067c-4.722,0.005-9.417,0.544-13.85,2.22L269.489,686.052z
	 M310.716,636.251l-28.313,20.583l0,0c-2.224,0.863-2.598-0.506-2.598-2.579l0,0l10.909-33.625c0,0,0.104-3.137,3.209-0.031
	c2.426,2.426,4.876,4.85,7.648,6.86c2.841,2.061,5.864,3.899,9.112,5.213C314.025,633.466,310.716,636.251,310.716,636.251z
	 M291.723,594.083l-3.532,10.885c-4.688,4.32-10.992,5.351-17.156,5.351c-6.166,0-12.472-1.031-17.158-5.352l-3.258-10.042
	c0,0-1.572-5.222,2.751-3.187c11.355,4.418,24.04,4.402,35.392-0.027C292.206,590.427,291.723,594.083,291.723,594.083z
	 M248.057,620.666c1.955-3.715,3.478,0.523,3.478,0.523l11.015,33.95c0,2.469-1.071,1.826-2.705,1.826l0,0l-29.035-21.109
	c0,0-2.618-2.028,0.563-3.177c3.469-1.253,6.591-3.344,9.56-5.537C243.528,625.224,245.967,623.103,248.057,620.666z
	 M232.282,702.216l27.944-20.317c1.78,0,2.048,0.539,2.048,2.951l0,0l-10.801,33.292c0,0-1.131,3.479-3.296,0.404
	c-1.97-2.797-4.873-4.829-7.641-6.831c-2.751-1.991-5.671-3.772-8.799-5.073C228.281,705.89,232.282,702.216,232.282,702.216z
	 M250.336,745.091l3.505-10.806c4.693-4.396,11.039-5.455,17.252-5.459h0.012h0.051c6.096-0.002,12.339,1.012,17.003,5.246
	l3.669,11.312c0,0,1.224,3.815-2.059,2.402c-5.886-2.446-12.247-3.769-18.623-3.771h-0.037c-6.266,0.01-12.528,1.292-18.329,3.67
	C248.686,749.319,250.336,745.091,250.336,745.091z M291.708,721.578l-11.726-36.146l0,0c0-2.056,0.706-2.615,3.119-2.615l0,0
	l30.927,22.485c-4.701,1.293-8.952,3.789-12.849,6.671C297.53,714.674,294.212,717.772,291.708,721.578z M332.444,620.453
	l-9.48,6.892c-6.558,0.812-12.48-2.281-17.599-6.073c-4.812-3.565-9.072-8.016-10.295-14.072l4.172-12.861
	c0,0,1.04-3.068,2.694,1.088c4.802,12.063,17.471,19.083,30.342,21.857C335.364,617.284,332.444,620.453,332.444,620.453z
	 M300.275,567.722l-3.555,10.955c-6.708,6.172-16.702,9.223-25.687,9.219c-8.987,0.004-18.98-3.048-25.688-9.22l-3.327-10.254
	c0,0-0.808-4.636,3.128-2.812c8.04,3.727,17.102,5.644,25.888,5.65c9.225-0.013,18.62-2.419,27.105-6.175
	C301.851,563.785,300.275,567.722,300.275,567.722z M210.9,616.976c11.808-3.057,22.101-10.504,28.715-20.745
	c1.475-3.753,3.919,0.301,3.919,0.301l3.462,10.668c-1.217,6.058-5.482,10.51-10.294,14.073c-5.12,3.792-11.04,6.883-17.6,6.071
	l-9.373-6.815C209.729,620.529,205.646,617.673,210.9,616.976z M223.502,603.147c-7.384,5.505-17.557,9.067-26.833,7.887
	l-8.984-6.533c0,0-3.739-3.598,0.025-3.598c9.451,0,18.471-5.613,26.009-11.214c7.181-5.335,13.172-12.544,17.733-20.306
	c1.199-2.947,3.47,0.6,3.47,0.6l3.545,10.928C236.691,589.681,230.577,597.871,223.502,603.147z M187.422,734.834l9.111-6.624
	c9.148-1.277,19.263,2.206,26.621,7.531c7.246,5.241,13.469,13.478,15.366,22.332l-3.375,10.401c0,0-2.011,6.161-3.503,1.483
	c-2.801-8.782-10.819-15.359-18.243-20.739c-7.386-5.333-16.319-8.907-25.302-10.834
	C183.977,737.717,187.422,734.834,187.422,734.834z M239.855,743.192c-6.824-10.694-17.59-18.307-29.871-21.198
	c-3.766-1.005-0.33-3.325-0.33-3.325l9.353-6.799c6.41-0.851,12.232,2.042,17.29,5.706c4.956,3.582,9.438,8.075,10.733,14.262
	l-3.627,11.181C243.403,743.019,241.452,746.426,239.855,743.192z M241.57,772.104l3.723-11.474
	c6.677-6.288,16.798-9.376,25.824-9.383h0.024h0.004c8.935-0.005,18.794,3.009,25.524,9.062l3.768,11.612
	c0,0,1.774,4.645-2.451,2.002c-8.407-3.676-17.688-6.032-26.81-6.038h-0.044c-9.466,0.021-19.122,2.563-27.778,6.503
	C239.522,775.963,241.57,772.104,241.57,772.104z M301.924,743.839c-0.674,1.101-3.118-0.381-3.118-0.381l-3.699-11.408
	c1.181-6.118,5.461-10.616,10.309-14.212c5.077-3.767,10.946-6.855,17.457-6.106l10.339,7.517c0,0,2.395,2.58-0.833,2.58
	C319.718,724.793,308.705,732.759,301.924,743.839z M318.633,735.95c7.349-5.489,17.398-9.012,26.636-7.934l9.873,7.178
	c0,0,3.249,2.16-0.157,2.844c-9.433,1.894-18.877,5.645-26.557,11.362c-7.356,5.477-13.479,12.934-18.072,20.934
	c-1.875,4.062-2.887-0.182-2.887-0.182l-3.815-11.756C305.34,749.553,311.528,741.258,318.633,735.95z M377.559,665.955h-11.765
	c-7.72-4.101-13.621-12.239-16.617-20.298c-3.29-8.851-3.688-19.83,0.203-28.576l9.634-7.004c0,0,3.355-0.601,2.821,2.278
	c-1.633,8.806-0.108,18.218,2.647,26.671c2.95,8.986,8.053,17.662,14.774,24.386C381.743,665.899,377.559,665.955,377.559,665.955z
	 M350.278,592.341c-6.083-1.866-12.11-4.457-17.28-8.212c-4.959-3.584-9.138-8.265-12.702-13.209
	c-3.403-4.721-6.926-10.193-8.286-15.927l7.05-21.734c0,0,1.148-3.179,2.217-0.332c3.139,6.513,7.149,12.607,11.617,18.283
	c4.253,5.406,9.015,10.959,14.78,14.807c5.694,3.802,12.232,6.484,18.682,8.708c5.636,1.944,11.43,3.707,17.363,4.416
	c4.419,0.528,1.215,3.15,1.215,3.15l-17.475,12.704C361.791,595.591,355.652,593.989,350.278,592.341z M310.786,569.668
	c3.89,8.183,10.685,15.03,17.965,20.316c7.5,5.428,16.555,8.994,25.66,10.93c3.496,0,0.485,3.214,0.485,3.214l-9.499,6.906
	c-9.111,1.158-19.089-2.268-26.414-7.583c-7.28-5.275-13.572-13.612-15.383-22.544l3.549-10.938
	C307.149,569.97,308.964,565.834,310.786,569.668z M311.125,534.279l-5.997,18.483c-4.249,3.65-9.953,5.934-15.189,7.734
	c-6.049,2.08-12.482,3.535-18.904,3.529c-6.119,0.009-12.249-1.326-18.037-3.236c-5.528-1.824-11.59-4.187-16.059-8.03l-6.24-19.233
	c0,0-0.699-4.703,2.663-3.101c5.152,2.455,10.447,4.641,15.898,6.314c6.969,2.139,14.439,4.026,21.774,4.034
	c7-0.01,14.104-1.749,20.778-3.732c5.423-1.612,10.712-3.726,15.864-6.095C312.82,528.583,311.125,534.279,311.125,534.279z
	 M223.568,534.991l6.49,20.005c-1.295,5.449-4.573,10.646-7.755,15.177c-3.676,5.235-8.029,10.188-13.232,13.955
	c-4.985,3.624-10.778,6.159-16.633,8.009c-5.552,1.755-11.938,3.471-17.817,2.867l-16.002-11.634c0,0-3.847-3.43,0.631-4.391
	c5.61-1.204,11.24-2.443,16.646-4.318c6.738-2.337,13.711-5.151,19.524-9.356c5.599-4.071,10.282-9.576,14.485-15.03
	c3.753-4.871,7.183-10.048,9.982-15.537C221.802,531.114,223.568,534.991,223.568,534.991z M157.307,756.729l17.14-12.462
	c5.539-0.704,11.654,0.896,16.919,2.467c6.117,1.82,12.168,4.372,17.402,8.066c4.993,3.525,9.203,8.15,12.804,13.06
	c3.508,4.784,7.057,10.294,8.548,16.103l-6.436,19.835c0,0-1.762,4.111-3.807,0.369c-3.092-5.658-6.594-11.112-10.581-16.171
	c-4.26-5.4-9.028-10.945-14.795-14.788c-5.691-3.794-12.226-6.467-18.669-8.683c-5.886-2.025-11.971-3.642-18.148-4.515
	C153.416,760.011,157.307,756.729,157.307,756.729z M230.522,806.157l6.355-19.586c4.215-3.771,10.087-6.085,15.36-7.904
	c6.047-2.084,12.478-3.546,18.9-3.548h0.021h0.018c6.113-0.009,12.238,1.321,18.023,3.226c5.478,1.803,11.386,4.129,15.868,7.854
	l6.783,20.906c0,0,1.452,3.938-2.257,1.965c-5.277-2.809-10.91-4.93-16.626-6.679c-6.971-2.135-14.443-4.016-21.776-4.02h-0.028
	c-7,0.017-14.104,1.762-20.775,3.752c-6.288,1.875-12.488,4.248-18.286,7.351C228.432,811.406,230.522,806.157,230.522,806.157z
	 M318.716,804.824l-6.646-20.491c1.164-5.361,4.416-10.517,7.49-14.974c3.642-5.278,7.967-10.268,13.127-14.113
	c4.949-3.688,10.713-6.272,16.56-8.17c5.637-1.83,12.064-3.559,18.049-3.046l17.505,12.726c0,0,2.886,2.299-0.58,3.096
	c-6.191,1.424-12.478,2.604-18.456,4.715c-6.668,2.354-13.635,5.17-19.333,9.437c-5.576,4.175-10.26,9.7-14.462,15.214
	c-3.751,4.921-7.175,10.154-9.942,15.702C319.813,809.356,318.716,804.824,318.716,804.824z M414.811,665.955h-21.67
	c-4.746-2.539-8.657-7.284-11.91-11.463c-3.947-5.073-7.405-10.706-9.559-16.787c-2.069-5.849-2.8-12.163-2.841-18.342
	c-0.04-6.006,0.313-12.639,2.556-18.283l17.719-12.882c0,0,3.011-1.659,2.458,2.395c-1.287,9.442-1.412,19.176-0.23,28.574
	c0.531,4.19,1.28,8.402,2.836,12.345c1.693,4.292,3.977,8.359,6.42,12.265c4.376,7.001,9.616,13.582,15.48,19.444
	C419.144,666.294,414.811,665.955,414.811,665.955z M220.344,483.837c6.774,3.531,13.355,7.472,20.507,10.142
	c9.611,3.587,19.88,6.022,30.184,6.032c10.303-0.009,20.572-2.445,30.184-6.032c8.393-3.133,16.144-7.719,23.833-12.325
	c3.894-2.332,2.204,2.906,2.204,2.906l-10.278,31.681c-6.13,5.792-14.266,9.439-22.129,12.213
	c-7.564,2.669-16.036,5.193-24.132,5.084c-7.869-0.105-15.979-2.447-23.352-5.033c-7.795-2.734-15.83-6.333-21.969-11.992
	c-0.104-0.098-0.209-0.194-0.313-0.292l-9.047-27.887C216.036,488.334,213.904,480.48,220.344,483.837z M120.966,548.985
	c8.362,0,16.631-2.054,24.64-4.442c7.267-2.172,14.365-5.074,20.891-8.961c6.071-3.615,11.439-8.216,16.203-13.422
	c8.51-9.301,15.513-20.215,20.068-32.022c2.818-7.305,6.424,0.541,6.424,0.541l9.007,27.762c-1.54,8.243-5.92,15.913-10.618,22.746
	c-4.531,6.592-9.867,13.534-16.405,18.263c-6.43,4.677-14.573,7.57-22.126,9.822c-8.138,2.427-17.06,4.301-25.572,3.089
	l-22.544-16.391C120.932,555.969,113.542,548.985,120.966,548.985z M78.56,661.217c4.727-3.82,8.964-8.171,12.828-12.638
	c10.605-12.283,18.612-26.662,20.886-42.877c1.913-13.644,0.692-27.827-2.614-41.293c-2.447-9.967,4.925-4.113,4.925-4.113
	l23.9,17.377c0.515,1.624,1.44,3.146,2.013,4.766c0.73,2.066,1.3,4.19,1.757,6.333c0.93,4.352,1.412,8.798,1.616,13.241
	c0.38,8.239,0.134,17.026-2.075,25.024c-2.018,7.311-6.649,14.208-11.058,20.28c-4.98,6.86-10.836,13.608-18.066,18.172
	c-0.251,0.159-0.506,0.314-0.762,0.467H80.449C80.449,665.955,71.95,666.559,78.56,661.217z M110.536,774.985
	c3.906-13.255,4.161-27.618,2.052-41.202c-2.472-15.922-10.546-30.031-21.059-42.048c-3.82-4.36-8.067-8.519-12.652-12.331
	c-6.565-4.347,1.211-6.216,1.211-6.216h29.978c3.318,1.983,6.411,3.984,9.299,6.589c3.225,2.906,6.156,6.133,8.872,9.517
	c5.215,6.496,10.217,13.801,13.173,21.638c1.275,3.379,1.833,7.037,2.265,10.605c0.536,4.44,0.757,8.922,0.712,13.394
	c-0.085,8.53-0.938,17.595-4.438,25.475l-24.342,17.697C115.607,778.103,108.117,783.196,110.536,774.985z M203.413,850.256
	c-2.945-7.679-6.921-14.956-11.548-21.745c-5.552-8.149-12.222-15.761-20.236-21.57c-8.176-5.908-17.701-9.911-27.371-12.639
	c-7.364-2.077-14.922-3.947-22.574-3.947c-8.503,0-2.122-6.183-2.122-6.183l23.685-17.22c8.275-1.283,17.002,0.469,24.951,2.746
	c7.877,2.255,16.398,5.221,23.088,10.079c6.314,4.548,11.487,11.204,15.92,17.521c4.858,6.922,9.415,14.731,11.088,23.117
	l-9.452,29.132C208.841,849.547,206.129,857.338,203.413,850.256z M321.654,855.095c-6.562-3.684-13.177-7.32-20.222-9.945
	c-9.608-3.579-19.872-6.007-30.17-6.015h-0.06c-10.303,0.02-20.569,2.465-30.178,6.062c-7.408,2.773-14.58,6.263-21.196,10.607
	c-6.467,4.246-4.184-3.791-4.184-3.791l9.354-28.83c6.012-5.824,14.09-9.496,21.874-12.295c7.623-2.741,16.126-5.282,24.297-5.282
	h0.022c7.784-0.015,15.875,2.331,23.173,4.844c7.991,2.752,16.259,6.398,22.531,12.204l9.543,29.416
	C326.439,852.069,328.553,858.965,321.654,855.095z M421.727,789.984c-8.514,0-16.936,2.041-25.094,4.479
	c-7.427,2.224-14.682,5.211-21.324,9.232c-6.048,3.662-11.387,8.321-16.12,13.56c-8.405,9.304-15.527,20.102-19.811,31.935
	c-2.688,7.424-6.233,0.104-6.233,0.104l-9.19-28.324c1.457-8.356,5.92-16.164,10.66-23.073c4.524-6.597,9.855-13.546,16.389-18.28
	c6.289-4.59,14.232-7.442,21.614-9.692c8.201-2.501,17.152-4.417,25.753-3.302l25.118,18.263
	C423.488,784.886,428.192,789.984,421.727,789.984z M465.419,676.565c-5.252,4.494-10.367,9.118-14.761,14.187
	c-10.63,12.285-18.654,26.67-20.938,42.902c-1.956,13.919-0.756,28.422,2.803,42.101c2.359,9.068-5.714,2.603-5.714,2.603
	l-23.434-17.037c-0.037-0.09-0.061-0.184-0.106-0.272v-0.001c-3.92-7.618-4.932-16.732-5.196-25.176
	c-0.251-8.041-0.058-16.884,2.447-24.607c2.368-7.413,7.095-14.393,11.728-20.565c5.007-6.67,10.911-13.289,18.203-17.51h33.551
	C464.002,673.188,470.057,672.596,465.419,676.565z M465.716,665.955H431.71c-7.42-3.783-13.433-10.303-18.507-16.773
	c-4.999-6.373-9.872-13.531-12.638-21.197c-1.23-3.411-1.759-7.095-2.171-10.681c-0.51-4.442-0.711-8.924-0.642-13.395
	c0.13-8.497,1.022-17.539,4.61-25.349l27.594-20.063c0,0,3.999-2.31,2.508,2.682c-4.241,14.19-5.165,29.563-2.948,44.155
	c2.431,16.001,10.496,30.177,21.044,42.259c4.802,5.49,10.28,10.664,16.258,15.227C470.171,665.17,465.716,665.955,465.716,665.955z
	"/>
</svg>
